<?xml version="1.0" encoding="UTF-8" standalone="no"?>
<!-- Created with Inkscape (http://www.inkscape.org/) -->

<svg
   version="1.1"
   id="svg2"
   width="1193"
   height="362"
   viewBox="0 0 1193 362"
   sodipodi:docname="horizontal_white_small.svg"
   inkscape:version="1.2.2 (b0a8486541, 2022-12-01)"
   inkscape:export-filename="../png/horizontal_white_small.png"
   inkscape:export-xdpi="96"
   inkscape:export-ydpi="96"
   xmlns:inkscape="http://www.inkscape.org/namespaces/inkscape"
   xmlns:sodipodi="http://sodipodi.sourceforge.net/DTD/sodipodi-0.dtd"
   xmlns:xlink="http://www.w3.org/1999/xlink"
   xmlns="http://www.w3.org/2000/svg"
   xmlns:svg="http://www.w3.org/2000/svg">
  <defs
     id="defs6">
    <linearGradient
       inkscape:collect="always"
       id="linearGradient119063">
      <stop
         style="stop-color:#0c5584;stop-opacity:1;"
         offset="0"
         id="stop119059" />
      <stop
         style="stop-color:#0c5584;stop-opacity:0;"
         offset="1"
         id="stop119061" />
    </linearGradient>
    <linearGradient
       inkscape:collect="always"
       xlink:href="#linearGradient119063"
       id="linearGradient119065"
       x1="53.928219"
       y1="698.63312"
       x2="212.21069"
       y2="698.63312"
       gradientUnits="userSpaceOnUse" />
  </defs>
  <sodipodi:namedview
     id="namedview4"
     pagecolor="#ffffff"
     bordercolor="#666666"
     borderopacity="1.0"
     inkscape:pageshadow="2"
     inkscape:pageopacity="0.0"
     inkscape:pagecheckerboard="0"
     showgrid="false"
     inkscape:zoom="0.87405859"
     inkscape:cx="549.41707"
     inkscape:cy="317.96881"
     inkscape:window-width="1854"
     inkscape:window-height="1131"
     inkscape:window-x="0"
     inkscape:window-y="0"
     inkscape:window-maximized="1"
     inkscape:current-layer="g8"
     inkscape:rotation="-1"
     inkscape:showpageshadow="2"
     inkscape:deskcolor="#d1d1d1" />
  <g
     inkscape:groupmode="layer"
     inkscape:label="Image"
     id="g8">
    <text
       xml:space="preserve"
       style="font-style:normal;font-variant:normal;font-weight:normal;font-stretch:normal;font-size:362.471px;line-height:1.25;font-family:FreeSans;-inkscape-font-specification:'FreeSans, Normal';font-variant-ligatures:normal;font-variant-caps:normal;font-variant-numeric:normal;font-variant-east-asian:normal;display:inline;fill:#ffffff;fill-opacity:1;stroke:#ffffff;stroke-width:6.04453;stroke-miterlimit:4;stroke-dasharray:none;stroke-opacity:1"
       x="1066.7311"
       y="271.37027"
       id="text53330"
       transform="scale(0.99212064,1.0079419)"><tspan
         sodipodi:role="line"
         id="tspan53328"
         x="1066.7311"
         y="271.37027"
         style="font-style:normal;font-variant:normal;font-weight:normal;font-stretch:normal;font-size:362.471px;font-family:FreeSans;-inkscape-font-specification:'FreeSans, Normal';font-variant-ligatures:normal;font-variant-caps:normal;font-variant-numeric:normal;font-variant-east-asian:normal;fill:#ffffff;fill-opacity:1;stroke:#ffffff;stroke-width:6.04453;stroke-miterlimit:4;stroke-dasharray:none;stroke-opacity:1">t</tspan></text>
    <text
       xml:space="preserve"
       style="font-style:normal;font-variant:normal;font-weight:normal;font-stretch:normal;font-size:359.047px;line-height:1.25;font-family:FreeSans;-inkscape-font-specification:'FreeSans, Normal';font-variant-ligatures:normal;font-variant-caps:normal;font-variant-numeric:normal;font-variant-east-asian:normal;display:inline;fill:#ffffff;fill-opacity:1;stroke:#ffffff;stroke-width:6;stroke-miterlimit:4;stroke-dasharray:none;stroke-opacity:1"
       x="36.276241"
       y="270.74527"
       id="text2765"><tspan
         sodipodi:role="line"
         id="tspan2763"
         x="36.276241"
         y="270.74527"
         style="font-style:normal;font-variant:normal;font-weight:normal;font-stretch:normal;font-size:359.047px;font-family:FreeSans;-inkscape-font-specification:'FreeSans, Normal';font-variant-ligatures:normal;font-variant-caps:normal;font-variant-numeric:normal;font-variant-east-asian:normal;fill:#ffffff;fill-opacity:1;stroke:#ffffff;stroke-width:6;stroke-miterlimit:4;stroke-dasharray:none;stroke-opacity:1">N</tspan></text>
    <text
       xml:space="preserve"
       style="font-style:normal;font-variant:normal;font-weight:normal;font-stretch:normal;font-size:359.801px;line-height:1.25;font-family:FreeSans;-inkscape-font-specification:'FreeSans, Normal';font-variant-ligatures:normal;font-variant-caps:normal;font-variant-numeric:normal;font-variant-east-asian:normal;display:inline;fill:#ffffff;fill-opacity:1;stroke:#ffffff;stroke-width:6;stroke-miterlimit:4;stroke-dasharray:none;stroke-opacity:1"
       x="458.89795"
       y="272.26575"
       id="text25707"><tspan
         sodipodi:role="line"
         id="tspan25705"
         x="458.89795"
         y="272.26575"
         style="font-style:normal;font-variant:normal;font-weight:normal;font-stretch:normal;font-size:359.801px;font-family:FreeSans;-inkscape-font-specification:'FreeSans, Normal';font-variant-ligatures:normal;font-variant-caps:normal;font-variant-numeric:normal;font-variant-east-asian:normal;fill:#ffffff;fill-opacity:1;stroke:#ffffff;stroke-width:6;stroke-miterlimit:4;stroke-dasharray:none;stroke-opacity:1">r</tspan></text>
    <text
       xml:space="preserve"
       style="font-style:normal;font-variant:normal;font-weight:normal;font-stretch:normal;font-size:363.302px;line-height:1.25;font-family:FreeSans;-inkscape-font-specification:'FreeSans, Normal';font-variant-ligatures:normal;font-variant-caps:normal;font-variant-numeric:normal;font-variant-east-asian:normal;display:inline;fill:#ffffff;fill-opacity:1;stroke:#ffffff;stroke-width:6.05839;stroke-miterlimit:4;stroke-dasharray:none;stroke-opacity:1"
       x="572.44672"
       y="272.51312"
       id="text32903"
       transform="scale(0.9900002,1.0101008)"><tspan
         sodipodi:role="line"
         id="tspan32901"
         x="572.44672"
         y="272.51312"
         style="font-style:normal;font-variant:normal;font-weight:normal;font-stretch:normal;font-size:363.302px;font-family:FreeSans;-inkscape-font-specification:'FreeSans, Normal';font-variant-ligatures:normal;font-variant-caps:normal;font-variant-numeric:normal;font-variant-east-asian:normal;fill:#ffffff;fill-opacity:1;stroke:#ffffff;stroke-width:6.05839;stroke-miterlimit:4;stroke-dasharray:none;stroke-opacity:1">k</tspan></text>
    <text
       xml:space="preserve"
       style="font-style:normal;font-variant:normal;font-weight:normal;font-stretch:normal;font-size:359.047px;line-height:1.25;font-family:FreeSans;-inkscape-font-specification:'FreeSans, Normal';font-variant-ligatures:normal;font-variant-caps:normal;font-variant-numeric:normal;font-variant-east-asian:normal;display:inline;fill:#ffffff;fill-opacity:1;stroke:#ffffff;stroke-width:6;stroke-miterlimit:4;stroke-dasharray:none;stroke-opacity:1"
       x="751.17291"
       y="271.66943"
       id="text39936"><tspan
         sodipodi:role="line"
         id="tspan39934"
         x="751.17291"
         y="271.66943"
         style="font-style:normal;font-variant:normal;font-weight:normal;font-stretch:normal;font-size:359.047px;font-family:FreeSans;-inkscape-font-specification:'FreeSans, Normal';font-variant-ligatures:normal;font-variant-caps:normal;font-variant-numeric:normal;font-variant-east-asian:normal;fill:#ffffff;fill-opacity:1;stroke:#ffffff;stroke-width:6;stroke-miterlimit:4;stroke-dasharray:none;stroke-opacity:1">y</tspan></text>
    <text
       xml:space="preserve"
       style="font-style:normal;font-variant:normal;font-weight:normal;font-stretch:normal;font-size:347.395px;line-height:1.25;font-family:FreeSans;-inkscape-font-specification:'FreeSans, Normal';font-variant-ligatures:normal;font-variant-caps:normal;font-variant-numeric:normal;font-variant-east-asian:normal;display:inline;fill:#ffffff;fill-opacity:1;stroke:#feffff;stroke-width:6;stroke-miterlimit:4;stroke-dasharray:none;stroke-opacity:1"
       x="903.93915"
       y="270.36584"
       id="text46495"><tspan
         sodipodi:role="line"
         id="tspan46493"
         x="903.93915"
         y="270.36584"
         style="font-style:normal;font-variant:normal;font-weight:normal;font-stretch:normal;font-size:347.395px;font-family:FreeSans;-inkscape-font-specification:'FreeSans, Normal';font-variant-ligatures:normal;font-variant-caps:normal;font-variant-numeric:normal;font-variant-east-asian:normal;fill:#ffffff;fill-opacity:1;stroke:#feffff;stroke-width:6;stroke-miterlimit:4;stroke-dasharray:none;stroke-opacity:1">s</tspan></text>
    <ellipse
       style="font-variation-settings:normal;opacity:1;fill:#ffffff;fill-opacity:0;fill-rule:evenodd;stroke:#ffffff;stroke-width:26.8304;stroke-linecap:butt;stroke-linejoin:miter;stroke-miterlimit:4;stroke-dasharray:none;stroke-dashoffset:0;stroke-opacity:1;stop-color:#000000;stop-opacity:1"
       id="path858"
       cx="374.24481"
       cy="176.80612"
       rx="83.449883"
       ry="82.45742" />
    <path
       id="path38214"
       style="opacity:1;fill:#ffffff;fill-opacity:1;stroke:#ffffff;stroke-width:2.00369;stroke-linecap:butt;stroke-linejoin:miter;stroke-miterlimit:4;stroke-dasharray:none;stroke-opacity:1"
       d="m 360.27903,120.59585 c -3.96284,0.16237 -7.01979,0.84185 -10.85426,1.81798 -2.88055,0.73358 -4.92439,1.74369 -7.48944,3.16225 -2.56985,1.42129 -4.95478,3.09916 -7.18555,4.99106 -4.20986,3.57024 -6.55376,6.5354 -9.26035,10.88144 -0.78156,1.2548 -1.4027,2.59602 -2.05148,3.92197 -2.55403,5.21893 -3.83705,9.6917 -4.2278,14.96625 -0.1201,1.62322 -0.28405,3.20328 -0.32731,4.83008 -0.026,0.99522 -0.0482,1.99129 -0.0346,2.98674 0.0142,0.98489 0.0461,1.99396 0.0865,2.95419 0.0487,1.18865 0.14662,2.39893 0.22981,3.59824 0.19895,2.86767 0.87968,5.62138 1.57023,8.40111 0.72149,2.90426 1.70075,5.71584 2.89448,8.45185 4.37701,10.03204 9.92041,16.30854 16.67402,23.35105 2.91763,3.04244 6.52959,5.88275 9.56968,7.97792 10.12297,6.54329 18.09221,9.52737 28.47971,12.17661 2.69313,0.68689 5.75935,0.98724 8.24745,1.26821 3.83288,0.43272 7.77806,0.33217 11.34442,0.39242 5.36602,0.0888 3.02305,-0.0221 4.4955,-0.32368 6.85279,-1.40253 13.81474,-3.28366 19.84352,-6.83102 9.25499,-5.44598 17.76206,-12.7663 23.95876,-21.5366 4.02596,-5.69805 6.32751,-12.56954 7.98872,-19.34585 1.41801,-5.78402 2.31686,-19.13475 1.59196,-17.7956 -0.75079,1.3873 -1.62227,2.65037 -2.44223,3.86235 -1.67255,2.47222 -3.71743,4.93994 -5.49585,6.99729 -2.20873,2.55557 -5.09306,4.93735 -7.5292,6.76226 -2.33102,1.74638 -4.82406,3.26233 -7.32671,4.75056 -1.54683,0.91997 -3.17165,1.7058 -4.82651,2.4114 -3.49387,1.49003 -7.21859,2.2136 -10.91028,3.04457 -2.28227,0.51385 -4.60771,0.67622 -6.93028,0.9082 -1.88284,0.18804 -3.7651,0.18458 -5.65157,0.12307 -2.83237,-0.0915 -5.57521,-0.70241 -8.34326,-1.25188 -2.60945,-0.51796 -5.14376,-1.25653 -7.61967,-2.20521 -1.70184,-0.6521 -3.32598,-1.48803 -4.93686,-2.33908 -4.13417,-2.11238 -7.85688,-5.32547 -11.00978,-8.66895 -1.54831,-1.64294 -2.89213,-3.40676 -4.045,-5.33309 -1.20309,-2.00962 -2.08329,-4.18092 -2.84394,-6.3896 -1.86029,-5.40188 -1.78262,-10.59314 -0.96238,-15.7476 0.6086,-3.82326 2.77143,-6.96481 5.17021,-9.53358 1.34324,-1.43836 3.00409,-2.34508 4.75422,-3.21113 1.91518,-0.94753 4.00855,-1.30967 6.10542,-1.61 1.97819,-0.28334 3.91956,-0.082 5.86865,0.2696 1.91833,0.34693 3.69947,1.0048 5.295,2.08214 3.35399,2.26497 5.77805,4.91671 7.70836,8.17871 l 0.8954,1.51408 c 0.82013,1.38579 0.44328,-3.09071 0.3274,-4.66909 -0.34636,-4.72052 -2.61508,-8.86924 -4.75042,-12.61806 -2.22489,-3.43606 -5.48561,-6.54561 -8.38313,-8.92948 -1.62449,-1.32617 -3.35068,-2.52054 -5.42354,-3.72294 -2.18227,-1.26573 -4.49042,-2.13998 -6.88339,-2.88174 -2.97508,-0.92196 -6.03754,-1.34072 -9.1085,-1.79095 -2.07995,-0.30508 -4.15502,-0.38449 -6.2466,-0.29847 z m 6.78391,15.67342 c 1.22334,-0.0353 2.36736,0.0476 3.25438,0.7218 0.12485,0.0941 -0.61202,0.15562 -1.53761,0.28407 -0.57572,0.0793 -1.26159,0.20872 -1.96463,0.45407 -2.0935,0.73057 -4.31457,2.18774 -5.40004,2.91611 -2.53447,1.70063 -5.0035,3.95043 -6.74046,6.04948 -1.56923,1.8961 -2.65262,4.25827 -3.57836,6.30453 -1.46527,3.23991 -2.12712,6.08518 -2.76058,9.30386 -0.26621,1.35343 -0.3562,2.71728 -0.46666,4.08848 -0.1427,1.76713 -0.15076,3.73521 -0.004,5.32757 0.28625,3.10578 0.88563,6.34979 1.77835,9.05063 1.2095,3.66014 3.45152,7.38495 5.21362,10.0185 1.11627,1.66826 2.37506,3.22581 3.75379,4.67814 3.15542,3.32435 6.54441,6.76337 10.05458,8.96743 4.69105,2.94571 9.93806,5.59895 14.98966,7.29225 7.93953,2.66107 16.36734,3.57435 24.1597,2.86551 l 3.03741,-0.27681 c 4.38109,-0.39843 8.67628,-1.51472 12.71401,-2.87088 2.46634,-0.82841 5.0808,-1.93487 7.18367,-2.85114 4.14639,-1.80675 8.21062,-4.45652 11.41869,-6.71145 2.49698,-1.7552 4.87432,-3.94686 6.95941,-5.73831 l 1.12699,-0.96968 c 1.61073,-1.3839 -1.61114,3.90372 -2.61765,5.76543 -2.13667,3.95175 -4.7103,7.4752 -8.00507,10.06914 l -1.67879,1.32055 c -4.06811,3.20286 -9.10523,5.51615 -13.58038,7.18186 -7.87131,2.72888 -15.08856,3.95446 -22.81386,3.98166 -3.09099,0.0181 -6.14029,-0.34911 -9.05785,-0.75606 -4.66374,-0.65055 -9.42382,-1.72303 -13.52257,-3.28715 -1.55023,-0.59134 -3.24696,-1.19552 -4.76872,-1.85604 -2.27767,-0.98864 -4.34019,-2.10135 -6.41653,-3.28333 -3.98819,-2.27013 -7.72555,-4.86555 -10.7096,-7.36821 -3.54491,-2.97321 -6.46062,-6.63675 -8.94747,-9.73989 -3.24993,-4.05502 -5.69515,-9.00006 -7.27959,-13.48098 -1.57395,-4.45068 -2.31598,-9.42419 -2.45849,-13.76318 -0.20216,-6.14669 1.09211,-12.62492 3.56207,-17.51698 3.98024,-7.88347 10.7481,-12.852 18.67657,-15.25915 1.76832,-0.53689 3.42343,-0.77291 5.18275,-0.85574 0.41845,-0.0188 0.835,-0.0448 1.24291,-0.0559 z" />
  </g>
</svg>
