<?xml version="1.0" encoding="UTF-8" standalone="no"?>
<!-- Created with Inkscape (http://www.inkscape.org/) -->

<svg
   version="1.1"
   id="svg2"
   width="1193"
   height="765"
   viewBox="0 0 1193 765"
   sodipodi:docname="vertical_small.svg"
   inkscape:version="1.2.2 (b0a8486541, 2022-12-01)"
   inkscape:export-filename="../png/horizontal_35_91_100_small.png"
   inkscape:export-xdpi="96"
   inkscape:export-ydpi="96"
   xml:space="preserve"
   xmlns:inkscape="http://www.inkscape.org/namespaces/inkscape"
   xmlns:sodipodi="http://sodipodi.sourceforge.net/DTD/sodipodi-0.dtd"
   xmlns:xlink="http://www.w3.org/1999/xlink"
   xmlns="http://www.w3.org/2000/svg"
   xmlns:svg="http://www.w3.org/2000/svg"><defs
     id="defs6"><linearGradient
       inkscape:collect="always"
       id="linearGradient119063"><stop
         style="stop-color:#0c5584;stop-opacity:1;"
         offset="0"
         id="stop119059" /><stop
         style="stop-color:#0c5584;stop-opacity:0;"
         offset="1"
         id="stop119061" /></linearGradient><linearGradient
       inkscape:collect="always"
       xlink:href="#linearGradient119063"
       id="linearGradient119065"
       x1="53.928219"
       y1="698.63312"
       x2="212.21069"
       y2="698.63312"
       gradientUnits="userSpaceOnUse" /></defs><sodipodi:namedview
     id="namedview4"
     pagecolor="#ffffff"
     bordercolor="#666666"
     borderopacity="1.0"
     inkscape:pageshadow="2"
     inkscape:pageopacity="0.0"
     inkscape:pagecheckerboard="0"
     showgrid="false"
     inkscape:zoom="0.87405859"
     inkscape:cx="531.07451"
     inkscape:cy="319.93717"
     inkscape:window-width="3374"
     inkscape:window-height="1371"
     inkscape:window-x="0"
     inkscape:window-y="0"
     inkscape:window-maximized="1"
     inkscape:current-layer="g8-2"
     inkscape:rotation="-1"
     inkscape:showpageshadow="2"
     inkscape:deskcolor="#d1d1d1" /><g
     inkscape:groupmode="layer"
     inkscape:label="Image"
     id="g8"><text
       xml:space="preserve"
       style="font-style:normal;font-variant:normal;font-weight:normal;font-stretch:normal;font-size:362.471px;line-height:1.25;font-family:FreeSans;-inkscape-font-specification:'FreeSans, Normal';font-variant-ligatures:normal;font-variant-caps:normal;font-variant-numeric:normal;font-variant-east-asian:normal;display:inline;fill:#235b64;fill-opacity:1;stroke:#235b64;stroke-width:6.04453;stroke-miterlimit:4;stroke-dasharray:none;stroke-opacity:1"
       x="1066.7311"
       y="666.23657"
       id="text53330"
       transform="scale(0.99212067,1.0079419)"><tspan
         sodipodi:role="line"
         id="tspan53328"
         x="1066.7311"
         y="666.23657"
         style="font-style:normal;font-variant:normal;font-weight:normal;font-stretch:normal;font-size:362.471px;font-family:FreeSans;-inkscape-font-specification:'FreeSans, Normal';font-variant-ligatures:normal;font-variant-caps:normal;font-variant-numeric:normal;font-variant-east-asian:normal;fill:#235b64;fill-opacity:1;stroke:#235b64;stroke-width:6.04453;stroke-miterlimit:4;stroke-dasharray:none;stroke-opacity:1">t</tspan></text><text
       xml:space="preserve"
       style="font-style:normal;font-variant:normal;font-weight:normal;font-stretch:normal;font-size:359.047px;line-height:1.25;font-family:FreeSans;-inkscape-font-specification:'FreeSans, Normal';font-variant-ligatures:normal;font-variant-caps:normal;font-variant-numeric:normal;font-variant-east-asian:normal;display:inline;fill:#235b64;fill-opacity:1;stroke:#235b64;stroke-width:6;stroke-miterlimit:4;stroke-dasharray:none;stroke-opacity:1"
       x="36.276241"
       y="668.74524"
       id="text2765"><tspan
         sodipodi:role="line"
         id="tspan2763"
         x="36.276241"
         y="668.74524"
         style="font-style:normal;font-variant:normal;font-weight:normal;font-stretch:normal;font-size:359.047px;font-family:FreeSans;-inkscape-font-specification:'FreeSans, Normal';font-variant-ligatures:normal;font-variant-caps:normal;font-variant-numeric:normal;font-variant-east-asian:normal;fill:#235b64;fill-opacity:1;stroke:#235b64;stroke-width:6;stroke-miterlimit:4;stroke-dasharray:none;stroke-opacity:1">N</tspan></text><text
       xml:space="preserve"
       style="font-style:normal;font-variant:normal;font-weight:normal;font-stretch:normal;font-size:359.801px;line-height:1.25;font-family:FreeSans;-inkscape-font-specification:'FreeSans, Normal';font-variant-ligatures:normal;font-variant-caps:normal;font-variant-numeric:normal;font-variant-east-asian:normal;display:inline;fill:#235b64;fill-opacity:1;stroke:#235b64;stroke-width:6;stroke-miterlimit:4;stroke-dasharray:none;stroke-opacity:1"
       x="458.89795"
       y="670.26575"
       id="text25707"><tspan
         sodipodi:role="line"
         id="tspan25705"
         x="458.89795"
         y="670.26575"
         style="font-style:normal;font-variant:normal;font-weight:normal;font-stretch:normal;font-size:359.801px;font-family:FreeSans;-inkscape-font-specification:'FreeSans, Normal';font-variant-ligatures:normal;font-variant-caps:normal;font-variant-numeric:normal;font-variant-east-asian:normal;fill:#235b64;fill-opacity:1;stroke:#235b64;stroke-width:6;stroke-miterlimit:4;stroke-dasharray:none;stroke-opacity:1">r</tspan></text><text
       xml:space="preserve"
       style="font-style:normal;font-variant:normal;font-weight:normal;font-stretch:normal;font-size:363.302px;line-height:1.25;font-family:FreeSans;-inkscape-font-specification:'FreeSans, Normal';font-variant-ligatures:normal;font-variant-caps:normal;font-variant-numeric:normal;font-variant-east-asian:normal;display:inline;fill:#235b64;fill-opacity:1;stroke:#235b64;stroke-width:6.05839;stroke-miterlimit:4;stroke-dasharray:none;stroke-opacity:1"
       x="572.44672"
       y="666.5329"
       id="text32903"
       transform="scale(0.9900002,1.0101008)"><tspan
         sodipodi:role="line"
         id="tspan32901"
         x="572.44672"
         y="666.5329"
         style="font-style:normal;font-variant:normal;font-weight:normal;font-stretch:normal;font-size:363.302px;font-family:FreeSans;-inkscape-font-specification:'FreeSans, Normal';font-variant-ligatures:normal;font-variant-caps:normal;font-variant-numeric:normal;font-variant-east-asian:normal;fill:#235b64;fill-opacity:1;stroke:#235b64;stroke-width:6.05839;stroke-miterlimit:4;stroke-dasharray:none;stroke-opacity:1">k</tspan></text><text
       xml:space="preserve"
       style="font-style:normal;font-variant:normal;font-weight:normal;font-stretch:normal;font-size:359.047px;line-height:1.25;font-family:FreeSans;-inkscape-font-specification:'FreeSans, Normal';font-variant-ligatures:normal;font-variant-caps:normal;font-variant-numeric:normal;font-variant-east-asian:normal;display:inline;fill:#235b64;fill-opacity:1;stroke:#235b64;stroke-width:6;stroke-miterlimit:4;stroke-dasharray:none;stroke-opacity:1"
       x="751.17291"
       y="669.66943"
       id="text39936"><tspan
         sodipodi:role="line"
         id="tspan39934"
         x="751.17291"
         y="669.66943"
         style="font-style:normal;font-variant:normal;font-weight:normal;font-stretch:normal;font-size:359.047px;font-family:FreeSans;-inkscape-font-specification:'FreeSans, Normal';font-variant-ligatures:normal;font-variant-caps:normal;font-variant-numeric:normal;font-variant-east-asian:normal;fill:#235b64;fill-opacity:1;stroke:#235b64;stroke-width:6;stroke-miterlimit:4;stroke-dasharray:none;stroke-opacity:1">y</tspan></text><text
       xml:space="preserve"
       style="font-style:normal;font-variant:normal;font-weight:normal;font-stretch:normal;font-size:347.395px;line-height:1.25;font-family:FreeSans;-inkscape-font-specification:'FreeSans, Normal';font-variant-ligatures:normal;font-variant-caps:normal;font-variant-numeric:normal;font-variant-east-asian:normal;display:inline;fill:#235b64;fill-opacity:1;stroke:#235b64;stroke-width:6;stroke-miterlimit:4;stroke-dasharray:none;stroke-opacity:1"
       x="903.93915"
       y="668.36584"
       id="text46495"><tspan
         sodipodi:role="line"
         id="tspan46493"
         x="903.93915"
         y="668.36584"
         style="font-style:normal;font-variant:normal;font-weight:normal;font-stretch:normal;font-size:347.395px;font-family:FreeSans;-inkscape-font-specification:'FreeSans, Normal';font-variant-ligatures:normal;font-variant-caps:normal;font-variant-numeric:normal;font-variant-east-asian:normal;fill:#235b64;fill-opacity:1;stroke:#235b64;stroke-width:6;stroke-miterlimit:4;stroke-dasharray:none;stroke-opacity:1">s</tspan></text><text
       xml:space="preserve"
       style="font-size:347.395px;font-family:FreeSans;-inkscape-font-specification:'FreeSans, Normal';text-align:center;text-anchor:middle;fill:#235b64;fill-opacity:1;stroke:#235b64;stroke-width:2.175;stroke-opacity:1"
       x="375.82013"
       y="662.70422"
       id="text355"><tspan
         sodipodi:role="line"
         id="tspan353"
         x="375.82013"
         y="662.70422">o</tspan></text><g
       inkscape:label="Image"
       id="g8-2"
       transform="translate(-855.2002,-503.39145)"><ellipse
         style="font-variation-settings:normal;opacity:1;fill:#1f5b64;fill-opacity:0;fill-rule:evenodd;stroke:#235b64;stroke-width:41.9958;stroke-linecap:butt;stroke-linejoin:miter;stroke-miterlimit:4;stroke-dasharray:none;stroke-dashoffset:0;stroke-opacity:1;stop-color:#000000;stop-opacity:1"
         id="path858"
         cx="1453.8882"
         cy="694.85651"
         rx="159.00212"
         ry="157.11119" /><path
         id="path38214"
         style="opacity:1;fill:#235b64;fill-opacity:1;stroke:#235b64;stroke-width:0.482787;stroke-linecap:butt;stroke-linejoin:miter;stroke-miterlimit:4;stroke-dasharray:none;stroke-opacity:1"
         d="m 1409.6684,605.88156 c -7.5506,0.30961 -13.3739,1.60396 -20.6806,3.46415 -5.4882,1.39752 -9.3835,3.32206 -14.2706,6.02506 -4.8954,2.70798 -9.4405,5.90516 -13.6907,9.50995 -8.0217,6.80255 -12.4875,12.45208 -17.644,20.73296 -1.4903,2.39095 -2.6734,4.94634 -3.9094,7.4728 -4.8665,9.94393 -7.3103,18.46612 -8.0551,28.51606 -0.2293,3.0927 -0.5416,6.10349 -0.6245,9.20316 -0.058,1.89622 -0.099,3.79409 -0.077,5.69095 0.031,1.87637 0.099,3.79889 0.1656,5.62859 0.099,2.26488 0.2793,4.57106 0.437,6.85579 0.3796,5.46413 1.676,10.71106 2.9923,16.00737 1.3751,5.53347 3.2402,10.89058 5.5149,16.10374 8.3402,19.11472 18.9017,31.07384 31.7702,44.49227 5.5587,5.79693 12.4402,11.20869 18.2331,15.2008 19.2882,12.46737 34.4725,18.15306 54.2648,23.20089 5.1304,1.30883 10.9733,1.88091 15.7146,2.41618 7.3021,0.82457 14.8195,0.63313 21.6138,0.74801 10.2247,0.16941 5.76,-0.0424 8.5663,-0.61693 13.0572,-2.67217 26.3223,-6.25641 37.8092,-13.01546 17.6341,-10.37658 33.8437,-24.32439 45.6501,-41.03508 7.6714,-10.85688 12.0563,-23.94941 15.2212,-36.86087 2.7017,-11.02059 4.4151,-36.45857 3.0333,-33.90696 -1.4304,2.64345 -3.0909,5.04988 -4.6537,7.35917 -3.187,4.71054 -7.0824,9.41242 -10.4711,13.33238 -4.2083,4.86924 -9.7043,9.40733 -14.3464,12.88447 -4.4414,3.32741 -9.1904,6.21601 -13.9586,9.05152 -2.9473,1.75281 -6.0441,3.2502 -9.1971,4.59473 -6.6569,2.83891 -13.7532,4.21762 -20.7883,5.80107 -4.3481,0.9789 -8.7799,1.28847 -13.2042,1.73032 -3.5873,0.35827 -7.1741,0.3516 -10.7681,0.23447 -5.3966,-0.17221 -10.6231,-1.33854 -15.8974,-2.38531 -4.9713,-0.98695 -9.801,-2.39412 -14.5182,-4.2017 -3.2429,-1.2425 -6.3364,-2.83518 -9.4068,-4.45685 -7.8768,-4.02486 -14.969,-10.1469 -20.9768,-16.51742 -2.95,-3.13051 -5.5103,-6.4911 -7.7064,-10.16142 -2.2936,-3.82914 -3.9709,-7.96625 -5.4204,-12.17426 -3.5436,-10.29275 -3.3962,-20.18411 -1.8332,-30.00516 1.1598,-7.28462 5.2814,-13.27051 9.8509,-18.16496 2.5598,-2.74058 5.724,-4.46819 9.0595,-6.11827 3.6485,-1.80541 7.6369,-2.49547 11.6325,-3.06768 3.7693,-0.53987 7.4688,-0.1566 11.1811,0.51363 3.6555,0.66117 7.0496,1.91435 10.0895,3.96722 6.3901,4.31577 11.0094,9.36809 14.6869,15.58337 l 1.7068,2.88508 c 1.5628,2.64027 0.8442,-5.88903 0.6227,-8.89646 -0.6591,-8.99438 -4.9818,-16.89907 -9.051,-24.04195 -4.2395,-6.54698 -10.4518,-12.47185 -15.9732,-17.01371 -3.095,-2.52687 -6.3837,-4.80275 -10.3331,-7.09373 -4.1581,-2.41165 -8.5562,-4.07744 -13.1149,-5.49083 -5.6687,-1.75651 -11.5033,-2.55439 -17.3556,-3.41235 -3.9632,-0.58127 -7.9165,-0.73255 -11.9023,-0.5688 z m 12.9259,29.86384 c 2.3309,-0.0654 4.5111,0.09 6.2014,1.37515 0.2367,0.17837 -1.1665,0.29656 -2.9296,0.54117 -1.0971,0.15108 -2.403,0.39758 -3.7445,0.86513 -3.9884,1.39217 -8.2199,4.16853 -10.2882,5.55646 -4.8297,3.2403 -9.5334,7.52689 -12.8448,11.52632 -2.9881,3.613 -5.0525,8.1135 -6.8165,12.01231 -2.7918,6.1733 -4.0525,11.59477 -5.26,17.72732 -0.5074,2.57883 -0.6788,5.17735 -0.8876,7.78998 -0.2733,3.36702 -0.2891,7.117 -0.01,10.15111 0.5435,5.91754 1.6871,12.09854 3.3882,17.2446 2.3043,6.97403 6.5762,14.07103 9.9338,19.08888 2.1265,3.17862 4.526,6.14634 7.1524,8.91361 6.0129,6.33405 12.4676,12.88668 19.1568,17.08616 8.9389,5.61244 18.9359,10.66798 28.5609,13.89432 15.1278,5.07068 31.1849,6.81044 46.0326,5.45979 l 5.7884,-0.52737 c 8.3486,-0.7591 16.5303,-2.88584 24.2244,-5.47005 4.6995,-1.57842 9.6818,-3.68658 13.6879,-5.43231 7.9004,-3.44249 15.6438,-8.49148 21.7563,-12.78799 4.7575,-3.34405 9.2874,-7.5199 13.2606,-10.93341 l 2.147,-1.84754 c 3.0683,-2.63697 -3.07,7.43777 -4.9882,10.98526 -4.0704,7.52933 -8.9748,14.2428 -15.2515,19.18526 l -3.1993,2.5162 c -7.7504,6.10261 -17.3485,10.51035 -25.8755,13.6841 -14.9976,5.19935 -28.7489,7.5346 -43.4685,7.58655 -5.8894,0.035 -11.6995,-0.66532 -17.2585,-1.44082 -8.8844,-1.23948 -17.9557,-3.28307 -25.7656,-6.26293 -2.9535,-1.12702 -6.1865,-2.27822 -9.086,-3.53649 -4.3399,-1.88387 -8.2693,-4.00384 -12.2255,-6.25612 -7.599,-4.32551 -14.72,-9.27058 -20.4065,-14.03907 -6.7519,-5.66506 -12.3095,-12.64536 -17.0478,-18.55796 -6.1917,-7.72627 -10.852,-17.14844 -13.8694,-25.68616 -2.999,-8.48032 -4.413,-17.9565 -4.6851,-26.2237 -0.3846,-11.71192 2.0807,-24.05523 6.7873,-33.37624 7.5835,-15.02102 20.4798,-24.48773 35.5849,-29.07445 3.3703,-1.02285 6.5236,-1.47258 9.8775,-1.63034 0.7955,-0.0371 1.589,-0.0851 2.366,-0.10668 z" /></g></g></svg>
