<?xml version="1.0" encoding="UTF-8" standalone="no"?>
<!-- Created with Inkscape (http://www.inkscape.org/) -->

<svg
   version="1.1"
   id="svg2"
   width="1434"
   height="366"
   viewBox="0 0 1434 366"
   sodipodi:docname="vertical_small_new.svg"
   inkscape:version="1.2.2 (b0a8486541, 2022-12-01)"
   inkscape:export-filename="../png/horizontal_35_91_100_small.png"
   inkscape:export-xdpi="96"
   inkscape:export-ydpi="96"
   xml:space="preserve"
   xmlns:inkscape="http://www.inkscape.org/namespaces/inkscape"
   xmlns:sodipodi="http://sodipodi.sourceforge.net/DTD/sodipodi-0.dtd"
   xmlns:xlink="http://www.w3.org/1999/xlink"
   xmlns="http://www.w3.org/2000/svg"
   xmlns:svg="http://www.w3.org/2000/svg"><defs
     id="defs6"><linearGradient
       inkscape:collect="always"
       id="linearGradient119063"><stop
         style="stop-color:#0c5584;stop-opacity:1;"
         offset="0"
         id="stop119059" /><stop
         style="stop-color:#0c5584;stop-opacity:0;"
         offset="1"
         id="stop119061" /></linearGradient><linearGradient
       inkscape:collect="always"
       xlink:href="#linearGradient119063"
       id="linearGradient119065"
       x1="53.928219"
       y1="698.63312"
       x2="212.21069"
       y2="698.63312"
       gradientUnits="userSpaceOnUse" /></defs><sodipodi:namedview
     id="namedview4"
     pagecolor="#ffffff"
     bordercolor="#666666"
     borderopacity="1.0"
     inkscape:pageshadow="2"
     inkscape:pageopacity="0.0"
     inkscape:pagecheckerboard="0"
     showgrid="false"
     inkscape:zoom="0.87405859"
     inkscape:cx="528.19476"
     inkscape:cy="321.03116"
     inkscape:window-width="3374"
     inkscape:window-height="1371"
     inkscape:window-x="0"
     inkscape:window-y="0"
     inkscape:window-maximized="1"
     inkscape:current-layer="g8"
     inkscape:rotation="-1"
     inkscape:showpageshadow="2"
     inkscape:deskcolor="#d1d1d1"
     showguides="false" /><g
     inkscape:groupmode="layer"
     inkscape:label="Image"
     id="g8"><text
       xml:space="preserve"
       style="font-style:normal;font-variant:normal;font-weight:normal;font-stretch:normal;font-size:362.471px;line-height:1.25;font-family:FreeSans;-inkscape-font-specification:'FreeSans, Normal';font-variant-ligatures:normal;font-variant-caps:normal;font-variant-numeric:normal;font-variant-east-asian:normal;display:inline;fill:#235b64;fill-opacity:1;stroke:#235b64;stroke-width:6.04453;stroke-miterlimit:4;stroke-dasharray:none;stroke-opacity:1"
       x="1318.7147"
       y="275.33875"
       id="text53330"
       transform="scale(0.99212067,1.0079419)"><tspan
         sodipodi:role="line"
         id="tspan53328"
         x="1318.7147"
         y="275.33875"
         style="font-style:normal;font-variant:normal;font-weight:normal;font-stretch:normal;font-size:362.471px;font-family:FreeSans;-inkscape-font-specification:'FreeSans, Normal';font-variant-ligatures:normal;font-variant-caps:normal;font-variant-numeric:normal;font-variant-east-asian:normal;fill:#235b64;fill-opacity:1;stroke:#235b64;stroke-width:6.04453;stroke-miterlimit:4;stroke-dasharray:none;stroke-opacity:1">t</tspan></text><text
       xml:space="preserve"
       style="font-style:normal;font-variant:normal;font-weight:normal;font-stretch:normal;font-size:359.047px;line-height:1.25;font-family:FreeSans;-inkscape-font-specification:'FreeSans, Normal';font-variant-ligatures:normal;font-variant-caps:normal;font-variant-numeric:normal;font-variant-east-asian:normal;display:inline;fill:#235b64;fill-opacity:1;stroke:#235b64;stroke-width:6;stroke-miterlimit:4;stroke-dasharray:none;stroke-opacity:1"
       x="286.27625"
       y="274.74524"
       id="text2765"><tspan
         sodipodi:role="line"
         id="tspan2763"
         x="286.27625"
         y="274.74524"
         style="font-style:normal;font-variant:normal;font-weight:normal;font-stretch:normal;font-size:359.047px;font-family:FreeSans;-inkscape-font-specification:'FreeSans, Normal';font-variant-ligatures:normal;font-variant-caps:normal;font-variant-numeric:normal;font-variant-east-asian:normal;fill:#235b64;fill-opacity:1;stroke:#235b64;stroke-width:6;stroke-miterlimit:4;stroke-dasharray:none;stroke-opacity:1">N</tspan></text><text
       xml:space="preserve"
       style="font-style:normal;font-variant:normal;font-weight:normal;font-stretch:normal;font-size:359.801px;line-height:1.25;font-family:FreeSans;-inkscape-font-specification:'FreeSans, Normal';font-variant-ligatures:normal;font-variant-caps:normal;font-variant-numeric:normal;font-variant-east-asian:normal;display:inline;fill:#235b64;fill-opacity:1;stroke:#235b64;stroke-width:6;stroke-miterlimit:4;stroke-dasharray:none;stroke-opacity:1"
       x="708.89795"
       y="276.26575"
       id="text25707"><tspan
         sodipodi:role="line"
         id="tspan25705"
         x="708.89795"
         y="276.26575"
         style="font-style:normal;font-variant:normal;font-weight:normal;font-stretch:normal;font-size:359.801px;font-family:FreeSans;-inkscape-font-specification:'FreeSans, Normal';font-variant-ligatures:normal;font-variant-caps:normal;font-variant-numeric:normal;font-variant-east-asian:normal;fill:#235b64;fill-opacity:1;stroke:#235b64;stroke-width:6;stroke-miterlimit:4;stroke-dasharray:none;stroke-opacity:1">r</tspan></text><text
       xml:space="preserve"
       style="font-style:normal;font-variant:normal;font-weight:normal;font-stretch:normal;font-size:363.302px;line-height:1.25;font-family:FreeSans;-inkscape-font-specification:'FreeSans, Normal';font-variant-ligatures:normal;font-variant-caps:normal;font-variant-numeric:normal;font-variant-east-asian:normal;display:inline;fill:#235b64;fill-opacity:1;stroke:#235b64;stroke-width:6.05839;stroke-miterlimit:4;stroke-dasharray:none;stroke-opacity:1"
       x="824.97205"
       y="276.47311"
       id="text32903"
       transform="scale(0.9900002,1.0101008)"><tspan
         sodipodi:role="line"
         id="tspan32901"
         x="824.97205"
         y="276.47311"
         style="font-style:normal;font-variant:normal;font-weight:normal;font-stretch:normal;font-size:363.302px;font-family:FreeSans;-inkscape-font-specification:'FreeSans, Normal';font-variant-ligatures:normal;font-variant-caps:normal;font-variant-numeric:normal;font-variant-east-asian:normal;fill:#235b64;fill-opacity:1;stroke:#235b64;stroke-width:6.05839;stroke-miterlimit:4;stroke-dasharray:none;stroke-opacity:1">k</tspan></text><text
       xml:space="preserve"
       style="font-style:normal;font-variant:normal;font-weight:normal;font-stretch:normal;font-size:359.047px;line-height:1.25;font-family:FreeSans;-inkscape-font-specification:'FreeSans, Normal';font-variant-ligatures:normal;font-variant-caps:normal;font-variant-numeric:normal;font-variant-east-asian:normal;display:inline;fill:#235b64;fill-opacity:1;stroke:#235b64;stroke-width:6;stroke-miterlimit:4;stroke-dasharray:none;stroke-opacity:1"
       x="1001.1729"
       y="275.66943"
       id="text39936"><tspan
         sodipodi:role="line"
         id="tspan39934"
         x="1001.1729"
         y="275.66943"
         style="font-style:normal;font-variant:normal;font-weight:normal;font-stretch:normal;font-size:359.047px;font-family:FreeSans;-inkscape-font-specification:'FreeSans, Normal';font-variant-ligatures:normal;font-variant-caps:normal;font-variant-numeric:normal;font-variant-east-asian:normal;fill:#235b64;fill-opacity:1;stroke:#235b64;stroke-width:6;stroke-miterlimit:4;stroke-dasharray:none;stroke-opacity:1">y</tspan></text><text
       xml:space="preserve"
       style="font-style:normal;font-variant:normal;font-weight:normal;font-stretch:normal;font-size:347.395px;line-height:1.25;font-family:FreeSans;-inkscape-font-specification:'FreeSans, Normal';font-variant-ligatures:normal;font-variant-caps:normal;font-variant-numeric:normal;font-variant-east-asian:normal;display:inline;fill:#235b64;fill-opacity:1;stroke:#235b64;stroke-width:6;stroke-miterlimit:4;stroke-dasharray:none;stroke-opacity:1"
       x="1153.9391"
       y="274.36584"
       id="text46495"><tspan
         sodipodi:role="line"
         id="tspan46493"
         x="1153.9391"
         y="274.36584"
         style="font-style:normal;font-variant:normal;font-weight:normal;font-stretch:normal;font-size:347.395px;font-family:FreeSans;-inkscape-font-specification:'FreeSans, Normal';font-variant-ligatures:normal;font-variant-caps:normal;font-variant-numeric:normal;font-variant-east-asian:normal;fill:#235b64;fill-opacity:1;stroke:#235b64;stroke-width:6;stroke-miterlimit:4;stroke-dasharray:none;stroke-opacity:1">s</tspan></text><text
       xml:space="preserve"
       style="font-size:347.395px;font-family:FreeSans;-inkscape-font-specification:'FreeSans, Normal';text-align:center;text-anchor:middle;fill:#235b64;fill-opacity:1;stroke:#235b64;stroke-width:2.175;stroke-opacity:1"
       x="625.82013"
       y="268.70422"
       id="text355"><tspan
         sodipodi:role="line"
         id="tspan353"
         x="625.82013"
         y="268.70422">o</tspan></text><g
       inkscape:label="Image"
       id="g8-2"
       transform="matrix(0.94570023,0,0,0.94570023,-543.49157,-817.82053)"><ellipse
         style="font-variation-settings:normal;opacity:1;fill:#1f5b64;fill-opacity:0;fill-rule:evenodd;stroke:#235b64;stroke-width:33.3779;stroke-linecap:butt;stroke-linejoin:miter;stroke-miterlimit:4;stroke-dasharray:none;stroke-dashoffset:0;stroke-opacity:1;stop-color:#000000;stop-opacity:1"
         id="path858"
         cx="727.01678"
         cy="1017.6387"
         rx="126.37265"
         ry="124.87018" /><path
         id="path38214"
         style="opacity:1;fill:#235b64;fill-opacity:1;stroke:#235b64;stroke-width:0.383693;stroke-linecap:butt;stroke-linejoin:miter;stroke-miterlimit:4;stroke-dasharray:none;stroke-opacity:1"
         d="m 691.87122,946.92289 c -6.00097,0.24579 -10.62939,1.27467 -16.43654,2.75332 -4.36193,1.11057 -7.45789,2.64017 -11.34229,4.78849 -3.89064,2.15209 -7.50326,4.6934 -10.88097,7.55831 -6.37551,5.40656 -9.92497,9.89686 -14.02329,16.47834 -1.18415,1.90028 -2.12482,3.93152 -3.10706,5.93938 -3.8681,7.90312 -5.81026,14.67692 -6.40205,22.66287 -0.18238,2.4616 -0.43052,4.8507 -0.49616,7.3148 -0.0469,1.5051 -0.0787,3.0162 -0.0623,4.5237 0.0255,1.492 0.0792,3.0193 0.13134,4.4749 0.0796,1.7976 0.22224,3.6336 0.34767,5.4463 0.30161,4.3437 1.33193,8.5147 2.37824,12.7227 1.0928,4.3994 2.57523,8.6581 4.38336,12.7995 6.62845,15.1939 15.0225,24.6999 25.25016,35.363 4.41782,4.6049 9.88743,8.9089 14.49145,12.0818 15.33013,9.9088 27.39837,14.4273 43.12895,18.4388 4.07761,1.0404 8.7215,1.4951 12.48971,1.9205 5.80367,0.6549 11.77837,0.5051 17.1786,0.5945 8.12646,0.1343 4.57778,-0.042 6.80815,-0.4917 10.37793,-2.1219 20.92074,-4.9708 30.05019,-10.3427 14.01523,-8.2486 26.89854,-19.3328 36.28225,-32.6146 6.097,-8.6284 9.58201,-19.0339 12.09745,-29.2961 2.14727,-8.7599 3.50911,-28.9766 2.41081,-26.9504 -1.13683,2.1022 -2.45658,4.0158 -3.69854,5.85 -2.53312,3.7445 -5.62899,7.4818 -8.32243,10.5977 -3.34464,3.8697 -7.71286,7.476 -11.40239,10.2363 -3.52991,2.6466 -7.3044,4.9406 -11.09399,7.1962 -2.34267,1.3928 -4.80363,2.5872 -7.30977,3.6523 -5.2908,2.2559 -10.93072,3.3515 -16.52229,4.6107 -3.45582,0.7772 -6.97801,1.0246 -10.4944,1.3727 -2.85128,0.2852 -5.70201,0.2791 -8.55859,0.1897 -4.28878,-0.1371 -8.44289,-1.0648 -12.63484,-1.8976 -3.95112,-0.7823 -7.78981,-1.9008 -11.53889,-3.3385 -2.57723,-0.9871 -5.03594,-2.2534 -7.47608,-3.5417 -6.26072,-3.1996 -11.89744,-8.065 -16.6723,-13.1277 -2.3446,-2.4872 -4.37937,-5.1574 -6.12504,-8.0766 -1.8228,-3.0452 -3.1559,-6.3314 -4.30805,-9.6766 -2.81629,-8.1814 -2.6992,-16.0421 -1.45691,-23.8474 0.92175,-5.7893 4.19766,-10.54676 7.82931,-14.43669 2.03445,-2.17831 4.54945,-3.55144 7.20059,-4.86273 2.89968,-1.43513 6.06954,-1.98345 9.24507,-2.4382 2.99596,-0.4291 5.9361,-0.1246 8.88669,0.40826 2.90528,0.52548 5.60289,1.5217 8.01893,3.15309 5.07879,3.43006 8.75017,7.44583 11.67325,12.38528 l 1.35605,2.29163 c 1.24226,2.10046 0.67114,-4.67843 0.4952,-7.06933 -0.52399,-7.14851 -3.95958,-13.43104 -7.19366,-19.10816 -3.36946,-5.2034 -8.30708,-9.9125 -12.69542,-13.52224 -2.45949,-2.00827 -5.07355,-3.81707 -8.2126,-5.63797 -3.3047,-1.91672 -6.80024,-3.24068 -10.42344,-4.36404 -4.50547,-1.39606 -9.1427,-2.03017 -13.79379,-2.71206 -3.14999,-0.46203 -6.29204,-0.58237 -9.45989,-0.45205 z m 10.27333,23.73522 c 1.85268,-0.0519 3.58551,0.0727 4.92876,1.09309 0.18821,0.14176 -0.92709,0.23542 -2.32826,0.43004 -0.87207,0.12005 -1.91021,0.31593 -2.97615,0.68764 -3.16983,1.1063 -6.53312,3.31302 -8.17663,4.4161 -3.8389,2.57536 -7.57735,5.98208 -10.20918,9.16113 -2.37476,2.8714 -4.01535,6.44825 -5.41775,9.5464 -2.21875,4.90729 -3.22079,9.21649 -4.1805,14.09009 -0.40326,2.0487 -0.53947,4.114 -0.70568,6.1918 -0.21692,2.6748 -0.22959,5.6574 -0.01,8.0676 0.43196,4.7036 1.34094,9.6156 2.69286,13.706 1.83162,5.5418 5.22676,11.1819 7.89522,15.1713 1.69029,2.5257 3.59731,4.8841 5.68478,7.0848 4.77894,5.0363 9.90908,10.2422 15.22554,13.5787 7.10449,4.4616 15.04996,8.4797 22.69967,11.0433 12.02342,4.0304 24.78547,5.4134 36.58625,4.3395 l 4.60045,-0.4218 c 6.63543,-0.6003 13.13811,-2.2894 19.25323,-4.3433 3.73513,-1.2557 7.69486,-2.9312 10.87916,-4.3194 6.27891,-2.7339 12.43332,-6.7474 17.29137,-10.1625 3.78123,-2.6578 7.38149,-5.9769 10.5394,-8.6911 l 1.70644,-1.4679 c 2.43861,-2.0954 -2.44004,5.9124 -3.96461,8.7289 -3.23495,5.9863 -7.13303,11.3194 -12.12167,15.2505 l -2.54272,1.9997 c -6.16,4.852 -13.78844,8.3539 -20.56562,10.8759 -11.9199,4.1329 -22.84926,5.9895 -34.54811,6.0296 -4.6807,0.035 -9.29856,-0.5279 -13.71683,-1.1454 -7.0612,-0.9832 -14.27084,-2.6077 -20.4782,-4.9789 -2.34744,-0.8937 -4.91682,-1.8091 -7.22133,-2.8061 -3.44945,-1.5019 -6.57237,-3.1851 -9.71672,-4.9722 -6.03949,-3.4396 -11.69918,-7.3698 -16.21881,-11.16 -5.36627,-4.5038 -9.78338,-10.0518 -13.54929,-14.7524 -4.92099,-6.1387 -8.62498,-13.6286 -11.02321,-20.4131 -2.38366,-6.7381 -3.50746,-14.2705 -3.72373,-20.8431 -0.3056,-9.3075 1.65374,-19.1182 5.39445,-26.5268 6.02735,-11.93798 16.2771,-19.46192 28.2824,-23.10741 2.67873,-0.81313 5.18489,-1.17022 7.85064,-1.29588 0.63217,-0.0301 1.26277,-0.0673 1.88041,-0.0848 z" /></g></g></svg>
